<svg width="199" height="40" viewBox="0 0 199 40" fill="none" xmlns="http://www.w3.org/2000/svg">
  <path
    fill-rule="evenodd"
    clip-rule="evenodd"
    d="M16.5931 -0.000489006C18.3235 2.11874 20.2319 4.08688 22.2955 5.8811C20.9193 10.3438 20.1785 15.0852 20.1785 19.9996C20.1785 24.9138 20.9193 29.6549 22.2953 34.1174C20.2317 35.9115 18.3234 37.8796 16.5931 39.9988C14.8611 37.8775 12.9507 35.9076 10.8848 34.112C12.2598 29.6511 13 24.9118 13 19.9997C13 15.0872 12.2597 10.3476 10.8846 5.88646C12.9506 4.09081 14.8611 2.12086 16.5931 -0.000489006ZM6.94119 31.0296C4.75509 29.4974 2.43498 28.1434 0.00193669 26.9887C0.676291 24.7777 1.03905 22.4309 1.03905 19.9993C1.03905 17.5676 0.676261 15.2206 0.00185719 13.0096C2.43485 11.8549 4.75493 10.5009 6.941 8.96881C7.77659 12.51 8.21873 16.2032 8.21873 19.9996C8.21873 23.7958 7.77666 27.4886 6.94119 31.0296ZM24.9675 19.9996C24.9675 23.7958 25.4096 27.4887 26.2451 31.0296C28.4303 29.498 30.7494 28.1445 33.1814 26.9901C32.5068 24.7787 32.1439 22.4314 32.1439 19.9993C32.1439 17.5671 32.5068 15.2197 33.1815 13.0082C30.7496 11.8538 28.4305 10.5003 26.2453 8.96881C25.4097 12.51 24.9675 16.2032 24.9675 19.9996Z"
    fill="#F8F8FA"
  />
  <path
    fill-rule="evenodd"
    clip-rule="evenodd"
    d="M112.278 12.3071C113.84 12.3071 115.106 11.0409 115.106 9.47899C115.106 7.91707 113.84 6.65088 112.278 6.65088C110.716 6.65088 109.45 7.91707 109.45 9.47899C109.45 11.0409 110.716 12.3071 112.278 12.3071ZM44.403 9.12537H50.2355L56.3957 23.8324H56.6578L62.8181 9.12537H68.6506V31.0149H64.0632V16.7675H63.8775L58.0887 30.908H54.9649L49.176 16.714H48.9903V31.0149H44.403V9.12537ZM77.5141 31.3249C75.9121 31.3249 74.5832 30.9151 73.5274 30.0957C72.4716 29.2763 71.9437 28.0542 71.9437 26.4296C71.9437 25.204 72.2386 24.2421 72.8284 23.5438C73.4182 22.8455 74.19 22.336 75.1439 22.0154C76.1051 21.6876 77.1391 21.4739 78.2459 21.3741C79.7022 21.2316 80.7435 21.0819 81.3697 20.9252C81.9959 20.7684 82.309 20.4264 82.309 19.8991V19.835C82.309 19.1581 82.0906 18.6343 81.6537 18.2638C81.224 17.8933 80.6124 17.708 79.8187 17.708C78.9813 17.708 78.3151 17.8862 77.8199 18.2424C77.3248 18.5987 76.9971 19.0512 76.8369 19.5998L72.5335 19.2578C72.8539 17.7615 73.6476 16.5751 74.9146 15.6986C76.1888 14.8222 77.8308 14.384 79.8405 14.384C81.0857 14.384 82.2508 14.5764 83.3357 14.9611C84.4207 15.3459 85.2944 15.948 85.9571 16.7675C86.627 17.5798 86.9619 18.6379 86.9619 19.9419V31.0149H82.5493V28.7383H82.4182C82.0105 29.5007 81.3988 30.1242 80.5833 30.6087C79.775 31.0861 78.752 31.3249 77.5141 31.3249ZM78.8466 28.1825C79.866 28.1825 80.7034 27.8939 81.3588 27.3168C82.0141 26.7325 82.3418 26.0092 82.3418 25.147V23.4049C82.1597 23.526 81.8757 23.6329 81.4898 23.7255C81.1112 23.8181 80.7034 23.9001 80.2665 23.9713C79.8369 24.0355 79.451 24.0925 79.1087 24.1423C78.2932 24.2564 77.6342 24.4808 77.1318 24.8157C76.6367 25.1506 76.3891 25.6387 76.3891 26.28C76.3891 26.907 76.6185 27.3809 77.0772 27.7015C77.5432 28.0222 78.133 28.1825 78.8466 28.1825ZM92.8109 36.1025C94.0997 36.9718 95.8728 37.4065 98.13 37.4065C99.732 37.4065 101.148 37.1713 102.379 36.701C103.609 36.2307 104.574 35.5325 105.273 34.6061C105.98 33.6798 106.333 32.5362 106.333 31.1752V14.5977H101.713V17.3553H101.538C101.334 16.9064 101.035 16.4539 100.642 15.9979C100.249 15.5419 99.7356 15.1607 99.1021 14.8543C98.4686 14.5407 97.6822 14.384 96.7429 14.384C95.5196 14.384 94.3909 14.6975 93.357 15.3245C92.3303 15.9445 91.5038 16.8743 90.8776 18.1142C90.2587 19.354 89.9492 20.9074 89.9492 22.7743C89.9492 24.5913 90.2514 26.0912 90.8557 27.274C91.4674 28.4568 92.2866 29.3368 93.3133 29.914C94.3473 30.4912 95.4941 30.7797 96.7538 30.7797C98.0936 30.7797 99.1495 30.5054 99.9213 29.9568C100.693 29.401 101.232 28.7846 101.538 28.1077H101.734V31.1111C101.734 32.187 101.403 32.9601 100.74 33.4304C100.085 33.9007 99.2514 34.1359 98.2393 34.1359C97.2126 34.1359 96.4225 33.9506 95.8691 33.5801C95.323 33.2167 94.9553 32.8141 94.766 32.3723L90.4625 32.9388C90.7392 34.1786 91.522 35.2332 92.8109 36.1025ZM100.828 26.1411C100.216 26.9534 99.3497 27.3595 98.2283 27.3595C97.0851 27.3595 96.2113 26.9462 95.607 26.1197C95.0026 25.2931 94.7004 24.1709 94.7004 22.7529C94.7004 21.3563 94.999 20.2162 95.5961 19.3326C96.2004 18.4491 97.0778 18.0073 98.2283 18.0073C99.357 18.0073 100.227 18.4384 100.839 19.3006C101.45 20.1628 101.756 21.3135 101.756 22.7529C101.756 24.1994 101.447 25.3287 100.828 26.1411ZM110.035 31.0149V14.5977H114.688V31.0149H110.035ZM121.561 30.2667C122.799 30.9793 124.277 31.3355 125.996 31.3355C127.488 31.3355 128.781 31.0719 129.873 30.5446C130.965 30.0102 131.821 29.2656 132.44 28.3108C133.066 27.3559 133.416 26.2515 133.488 24.9974H129.098C128.959 25.8738 128.617 26.5508 128.071 27.0282C127.525 27.4985 126.851 27.7336 126.05 27.7336C124.965 27.7336 124.095 27.3061 123.44 26.451C122.792 25.5888 122.468 24.3739 122.468 22.8063C122.468 21.253 122.795 20.0523 123.451 19.2044C124.106 18.3564 124.973 17.9325 126.05 17.9325C126.902 17.9325 127.59 18.1854 128.115 18.6913C128.646 19.1901 128.974 19.8492 129.098 20.6687H133.488C133.423 19.4003 133.07 18.2959 132.429 17.3553C131.795 16.4147 130.925 15.6844 129.819 15.1642C128.719 14.6441 127.437 14.384 125.974 14.384C124.277 14.384 122.814 14.7438 121.583 15.4635C120.352 16.176 119.402 17.17 118.732 18.4455C118.07 19.7139 117.738 21.1888 117.738 22.8704C117.738 24.5307 118.066 25.9985 118.721 27.274C119.384 28.5495 120.331 29.547 121.561 30.2667Z"
    fill="#F8F8FA"
  />
  <path
    d="M188.067 26.668C188.086 27.2182 188.214 27.6899 188.45 28.0829C188.686 28.4563 188.99 28.7609 189.364 28.9968C189.757 29.2129 190.189 29.3702 190.661 29.4684C191.152 29.5667 191.653 29.6158 192.164 29.6158C192.557 29.6158 192.97 29.5863 193.402 29.5274C193.835 29.4684 194.228 29.3603 194.582 29.2031C194.955 29.0459 195.26 28.8199 195.495 28.5251C195.731 28.2107 195.849 27.8176 195.849 27.346C195.849 26.6975 195.603 26.2062 195.112 25.8721C194.621 25.538 194.002 25.2727 193.255 25.0761C192.528 24.86 191.732 24.6733 190.867 24.5161C190.003 24.3392 189.197 24.1034 188.45 23.8086C187.723 23.4941 187.114 23.0618 186.622 22.5115C186.131 21.9613 185.885 21.1948 185.885 20.2122C185.885 19.4458 186.052 18.7874 186.387 18.2372C186.74 17.6869 187.182 17.2447 187.713 16.9106C188.263 16.5569 188.873 16.3014 189.541 16.1442C190.229 15.9673 190.907 15.8789 191.575 15.8789C192.439 15.8789 193.235 15.9575 193.962 16.1147C194.69 16.2523 195.328 16.5078 195.879 16.8812C196.448 17.2349 196.9 17.7262 197.235 18.3551C197.569 18.9643 197.765 19.7307 197.824 20.6544H195.318C195.279 20.1631 195.151 19.7602 194.935 19.4458C194.719 19.1117 194.444 18.8464 194.11 18.6499C193.776 18.4533 193.402 18.3158 192.99 18.2372C192.597 18.1389 192.194 18.0898 191.781 18.0898C191.408 18.0898 191.024 18.1193 190.631 18.1782C190.258 18.2372 189.914 18.3453 189.6 18.5025C189.285 18.64 189.03 18.8366 188.833 19.092C188.637 19.3279 188.538 19.6423 188.538 20.0354C188.538 20.4677 188.686 20.8313 188.981 21.1261C189.295 21.4012 189.688 21.637 190.16 21.8335C190.631 22.0104 191.162 22.1676 191.752 22.3052C192.341 22.4231 192.931 22.5508 193.52 22.6884C194.149 22.826 194.758 22.993 195.348 23.1895C195.957 23.3861 196.488 23.6514 196.94 23.9854C197.411 24.2999 197.785 24.7028 198.06 25.1941C198.355 25.6854 198.502 26.2946 198.502 27.0217C198.502 27.9454 198.306 28.7118 197.913 29.321C197.539 29.9302 197.038 30.4216 196.409 30.7949C195.8 31.1683 195.102 31.4238 194.316 31.5614C193.55 31.7186 192.783 31.7972 192.017 31.7972C191.172 31.7972 190.366 31.7088 189.6 31.5319C188.833 31.355 188.155 31.0701 187.566 30.677C186.976 30.2643 186.504 29.7337 186.151 29.0852C185.797 28.417 185.6 27.6113 185.561 26.668H188.067Z"
    fill="#F8F8FA"
  />
  <path
    d="M169.149 10.4253H171.655V18.296H171.714C172.126 17.451 172.775 16.8417 173.659 16.4684C174.544 16.0753 175.516 15.8788 176.578 15.8788C177.757 15.8788 178.779 16.095 179.643 16.5273C180.528 16.9597 181.255 17.5492 181.825 18.296C182.414 19.0231 182.856 19.8682 183.151 20.8311C183.446 21.7941 183.593 22.816 183.593 23.8969C183.593 24.9778 183.446 25.9997 183.151 26.9626C182.876 27.9256 182.444 28.7706 181.854 29.4978C181.284 30.2053 180.557 30.7653 179.673 31.178C178.808 31.5907 177.796 31.7971 176.637 31.7971C176.263 31.7971 175.841 31.7578 175.369 31.6792C174.917 31.6006 174.465 31.4728 174.013 31.296C173.561 31.1191 173.129 30.8833 172.716 30.5885C172.323 30.274 171.989 29.8908 171.714 29.4388H171.655V31.4728H169.149V10.4253ZM180.94 23.72C180.94 23.0125 180.842 22.3247 180.646 21.6565C180.469 20.9687 180.184 20.3595 179.791 19.8289C179.417 19.2983 178.926 18.8757 178.317 18.5613C177.727 18.2469 177.03 18.0897 176.224 18.0897C175.379 18.0897 174.661 18.2567 174.072 18.5908C173.482 18.9249 173.001 19.3671 172.627 19.9173C172.254 20.4479 171.979 21.0571 171.802 21.745C171.645 22.4328 171.566 23.1305 171.566 23.8379C171.566 24.5847 171.655 25.3119 171.832 26.0193C172.008 26.7072 172.284 27.3164 172.657 27.847C173.05 28.3776 173.551 28.8099 174.16 29.144C174.77 29.4585 175.507 29.6157 176.371 29.6157C177.236 29.6157 177.953 29.4486 178.523 29.1146C179.113 28.7805 179.584 28.3383 179.938 27.788C180.292 27.2378 180.547 26.6089 180.705 25.9014C180.862 25.1939 180.94 24.4668 180.94 23.72Z"
    fill="#F8F8FA"
  />
  <path
    d="M166.729 31.414C166.297 31.6695 165.698 31.7972 164.931 31.7972C164.283 31.7972 163.762 31.6203 163.369 31.2666C162.995 30.8932 162.809 30.2938 162.809 29.4684C162.121 30.2938 161.315 30.8932 160.392 31.2666C159.488 31.6203 158.505 31.7972 157.444 31.7972C156.756 31.7972 156.098 31.7186 155.469 31.5614C154.859 31.4042 154.329 31.1585 153.877 30.8244C153.425 30.4903 153.061 30.058 152.786 29.5274C152.531 28.9771 152.403 28.3188 152.403 27.5523C152.403 26.6876 152.55 25.9802 152.845 25.4299C153.14 24.8796 153.523 24.4375 153.995 24.1034C154.486 23.7496 155.036 23.4843 155.646 23.3074C156.274 23.1306 156.913 22.9832 157.562 22.8653C158.249 22.7277 158.898 22.6294 159.507 22.5705C160.136 22.4919 160.686 22.3936 161.158 22.2757C161.63 22.1381 162.003 21.9514 162.278 21.7156C162.553 21.4601 162.691 21.0966 162.691 20.6249C162.691 20.0747 162.583 19.6325 162.367 19.2984C162.17 18.9643 161.905 18.7088 161.571 18.532C161.256 18.3551 160.893 18.2372 160.48 18.1782C160.087 18.1193 159.694 18.0898 159.301 18.0898C158.24 18.0898 157.355 18.2961 156.648 18.7088C155.94 19.1019 155.557 19.8585 155.498 20.9787H152.993C153.032 20.0354 153.228 19.2394 153.582 18.5909C153.936 17.9424 154.407 17.4216 154.997 17.0286C155.587 16.6159 156.255 16.3211 157.002 16.1442C157.768 15.9673 158.584 15.8789 159.448 15.8789C160.136 15.8789 160.814 15.928 161.482 16.0263C162.17 16.1246 162.789 16.3309 163.339 16.6453C163.89 16.9401 164.332 17.3627 164.666 17.9129C165 18.4632 165.167 19.1805 165.167 20.0648V27.9061C165.167 28.4956 165.197 28.928 165.255 29.2031C165.334 29.4782 165.57 29.6158 165.963 29.6158C166.179 29.6158 166.435 29.5667 166.729 29.4684V31.414ZM162.661 23.6022C162.347 23.8381 161.934 24.0149 161.423 24.1328C160.912 24.2311 160.372 24.3195 159.802 24.3981C159.252 24.4571 158.692 24.5357 158.122 24.634C157.552 24.7126 157.041 24.8501 156.589 25.0467C156.137 25.2432 155.763 25.5281 155.469 25.9015C155.194 26.2553 155.056 26.7466 155.056 27.3755C155.056 27.7882 155.135 28.1419 155.292 28.4367C155.469 28.7118 155.685 28.9378 155.94 29.1147C156.215 29.2915 156.53 29.4193 156.884 29.4979C157.237 29.5765 157.611 29.6158 158.004 29.6158C158.829 29.6158 159.537 29.5077 160.126 29.2916C160.716 29.0557 161.197 28.7708 161.571 28.4367C161.944 28.0829 162.219 27.7095 162.396 27.3165C162.573 26.9038 162.661 26.5206 162.661 26.1668V23.6022Z"
    fill="#F8F8FA"
  />
  <path d="M137.26 10.4253H140.061V29.1146H151.204V31.4728H137.26V10.4253Z" fill="#F8F8FA" />
</svg>
